/* XPM */
static char *_25a3d9404ff4ae1842eeb9beb461683Oc9XThkc2z7tZFSt[] = {
/* columns rows colors chars-per-pixel */
"64 64 155 2 ",
"   c #030307",
".  c #040309",
"X  c #040511",
"o  c #040916",
"O  c #050B1B",
"+  c #08101E",
"@  c #060D20",
"#  c #090F23",
"$  c #061125",
"%  c #091326",
"&  c #0A142A",
"*  c #0C182E",
"=  c #0C1635",
"-  c #0E1934",
";  c #0E1638",
":  c #0E1B3A",
">  c #101F31",
",  c #0E2035",
"<  c #112134",
"1  c #162744",
"2  c #172B41",
"3  c #172B4D",
"4  c #182D4D",
"5  c #1A3453",
"6  c #1B3659",
"7  c #1F3A5C",
"8  c #22375F",
"9  c #1E3C63",
"0  c #233B64",
"q  c #284767",
"w  c #244A6F",
"e  c #2E4471",
"r  c #254975",
"t  c #2D4D7A",
"y  c #2C517C",
"u  c #33597C",
"i  c #2F5582",
"p  c #2C5C86",
"a  c #275088",
"s  c #2B558B",
"d  c #305685",
"f  c #335E85",
"g  c #315D8C",
"h  c #2A5792",
"j  c #2D5A91",
"k  c #345D92",
"l  c #3B5E93",
"z  c #355F99",
"x  c #33628E",
"c  c #3A6790",
"v  c #3D6B94",
"b  c #33649D",
"n  c #39659C",
"m  c #3D6D9E",
"M  c #2C5DBE",
"N  c #3163A4",
"B  c #336AA7",
"V  c #3D69A3",
"C  c #346CAB",
"Z  c #386EAC",
"A  c #3672A3",
"S  c #3671AC",
"D  c #3A74AB",
"F  c #2D61BF",
"G  c #3A74B2",
"H  c #3D7AB5",
"J  c #3D7DB9",
"K  c #426EA4",
"L  c #436FA8",
"P  c #4178A3",
"I  c #4476AD",
"U  c #447DAB",
"Y  c #4573B4",
"T  c #427CB1",
"R  c #427DBB",
"E  c #2F63C1",
"W  c #336BC3",
"Q  c #3773C6",
"!  c #3876C6",
"~  c #3A7AC6",
"^  c #3774C8",
"/  c #3875C8",
"(  c #3C7EC9",
")  c #3F81B3",
"_  c #4184B6",
"`  c #4F85B4",
"'  c #4A89B7",
"]  c #4283BD",
"[  c #4488BE",
"{  c #508FBA",
"}  c #3E82C6",
"|  c #3E82CB",
" . c #4385C2",
".. c #458BC4",
"X. c #498CC5",
"o. c #4086CC",
"O. c #438BCD",
"+. c #4A8EC9",
"@. c #4792C6",
"#. c #4B92C6",
"$. c #4792CE",
"%. c #4995CD",
"&. c #4C9BCE",
"*. c #5492C7",
"=. c #5196CA",
"-. c #529ACE",
";. c #458DD0",
":. c #4792D1",
">. c #4895D1",
",. c #4C9CD2",
"<. c #549CD2",
"1. c #599FD4",
"2. c #4FA1CE",
"3. c #51A5CE",
"4. c #53ABCF",
"5. c #4EA1D2",
"6. c #4FA1D2",
"7. c #4FA3D6",
"8. c #51A6D2",
"9. c #50A3D5",
"0. c #51A7D5",
"q. c #58A2D4",
"w. c #5AA3D6",
"e. c #52A9D1",
"r. c #52A9D5",
"t. c #53ABD5",
"y. c #54A8D6",
"u. c #54ACD4",
"i. c #55ADD5",
"p. c #54ADD7",
"a. c #56AFD7",
"s. c #54A4D8",
"d. c #53ABD8",
"f. c #56ADD9",
"g. c #55AED9",
"h. c #55AFDA",
"j. c #56B1D5",
"k. c #56B1D6",
"l. c #57B3D7",
"z. c #58B4D6",
"x. c #5BBAD5",
"c. c #56B0D8",
"v. c #56B1D8",
"b. c #57B3D8",
"n. c #56B1DB",
"m. c #57B1DB",
"M. c #58B4D9",
"N. c #59B6D9",
"B. c #58B3DC",
"V. c #58B4DC",
"C. c #5AB7DC",
"Z. c #5BBADA",
"A. c #5CBBDB",
"S. c #5BB9DD",
"D. c #5CBADD",
/* pixels */
"; = = % o X . . . . . . . . . . . . . . . . . . . . . . . . . . X X X . . . . . .     . . . .   .   .     .   .   .   .   .   . ",
"; ; : = $ @ O o X X .     . . . . . X . . X X X X X X . . . . . . . . . . . . . X . . . . . . .   .   . .   .   .   .   .   .   ",
"t d k b k i t e 9 3 : % o X . . . . . . X X X . X . . . . . . . . . . . . . . . . . . . . . .   .   .     .   .   .   .   .   . ",
"w.<.<.%. .R Y Y L K V l i 0 1 & O . . . X . X X X X X . . . . . . . . . . . X . . . . . . . .     .   . .   . . .   .   .   .   ",
"%... .G C C N b j s k z n V K k y 7 : + o . X . X X . X X X X X . . . . . . . . . . . .   .   . .   .   .   .     .   . . .   . ",
",.,.2.&.,.&.@. .) S b h a a s N D G I n r 1 + X . X . X X X . . . . . . . . . X X X . . .   .     .   .   .   . .   .   . . . . ",
"S.S.S.S.n.t.7.7.,.7.,.@._ D V D S S B Z R I v q < O . . . X . . . . . . . . . . X X . .   .   . .   .   .   .     .   . . . . . ",
"Z.Z.N.N.n.k.d.d.g.g.g.a.k.g.t.6.2.%.} H S Z G ] I i 4 # X . . . . . . . . . . . . X . . .   .     .   .   .   . .   .   . .   . ",
"N.N.k.k.k.l.N.V.n.h.g.t.e.8.8.t.t.7.%.#...~ J G G G D k 5 # X . .       . . . . . . . . . .   . .   .   .     .   . .   . . . . ",
"S.z.n.k.z.V.V.n.n.h.a.V.a.t.e.7.9.9.0.:.@.@...} R G G G Z g 6 & $   . . . . . . . . . .   . .     .   . . . . . . . .     . .   ",
"S.S.S.N.k.V.l.V.n.V.V.k.V.t.l.g.y.t.0.0.6.,.%.#.o. .) J H J H n 8 % . . . . X . . . . . .   .   .     . . . . . . . . .   .   . ",
"S.A.Z.Z.Z.l.V.N.V.V.N.V.n.V.l.g.g.y.d.t.t.t.7.<.,.-.%.+.....X.+.` K 8 - X . . . . . . .   .   .   . .         .   . . . .   .   ",
"A.A.A.D.A.S.A.Z.Z.N.N.N.V.Z.k.l.N.b.B.b.a.a.0.w.s.9.w.<.-.#.+.%.1.=.+.K 8 # . . .         .     .           . . . . . .       . ",
"S.A.A.D.A.A.A.A.Z.N.N.N.V.z.V.V.N.N.b.N.b.b.a.y.<.w.w.w.w.-.+...*.=.<.1.*.m 5 O .         . . . . . .     . .     . .   . . .   ",
"Z.A.S.S.S.S.S.A.A.Z.A.A.A.A.A.A.A.N.N.N.j.b.a.B.b.y.w.w.<.-.#. . . .X.=.<.1.*.c 2 X .     . . . . . .       . . .   . . .   . . ",
"z.V.Z.A.N.Z.N.Z.Z.A.A.A.x.A.A.A.A.A.A.D.D.N.C.x.b.N.g.g.9.<.-.X. .] ]  .*.<.<.1.{ u , X . .   . .   .   . . . . . . . . . . . . ",
"V.l.V.l.N.N.N.N.N.N.A.Z.x.A.A.A.x.A.A.A.A.A.S.A.A.N.N.N.k.k.0.-.#.X.X.X.X.+.-.1.1.1.` q %           . . .   X       X .   X   . ",
"g.g.N.z.N.n.N.N.N.N.N.N.N.N.C.S.N.C.A.x.A.A.S.S.S.A.A.N.N.N.N.a.w.#.X.]  .+.#.-.1.q.w.-.P 5 o         . . . . . . . .       . . ",
"g.g.g.n.N.n.n.N.z.N.k.N.a.n.z.N.C.N.N.C.x.C.A.A.Z.A.Z.Z.D.N.Z.N.N.a.-.[ R H ] X.-.<.&.-.q.*.x < X       . .   . . .       . . . ",
"k.a.a.k.g.g.k.a.k.k.n.k.k.N.N.N.N.N.N.k.k.N.N.x.Z.Z.Z.Z.Z.Z.N.Z.x.N.x.u.&.] G G [ =.q.-.-.3.-.U 8 O . X . X   .   X     . . . . ",
"d.d.d.g.k.f.f.j.a.a.k.a.k.k.k.k.b.N.N.N.b.b.b.N.N.N.Z.x.Z.Z.N.x.N.Z.x.Z.A.k.&._ D G *.8.-.%.%.#.=.f * . . .           X . . .   ",
"t.d.d.d.g.g.j.f.a.a.g.a.b.d.k.k.j.a.b.b.b.N.b.N.N.N.N.N.N.N.Z.x.x.Z.x.N.A.A.A.N.q.[ U X.<.%.&.%.&.&.P 4 o .   .   X     . .   . ",
"0.t.y.t.t.g.a.a.g.g.t.a.d.g.n.j.n.k.a.j.h.b.b.N.N.N.l.N.N.N.N.N.N.x.N.x.x.N.N.x.N.N.0...#.<.<.-.#.#.&.' q O . . X           X   ",
"7.9.y.y.y.0.t.a.g.t.d.a.d.g.a.n.g.k.b.j.f.b.h.b.k.l.N.N.l.N.N.N.N.N.N.N.x.N.N.z.z.N.N.a.6.#.#.<.-.#.#.%.{ y $   .   X       X   ",
"7.0.0.0.s.d.d.d.d.d.d.d.y.y.g.g.g.k.k.j.k.V.a.g.k.k.N.n.N.V.j.z.k.N.N.N.N.z.z.z.z.z.z.x.z.4.#.#.%.<.#.#.%.#.g &   . . . o       ",
"7.7.9.0.7.7.d.7.7.d.d.s.0.d.g.y.a.a.a.b.k.a.k.k.a.a.a.a.k.k.k.k.k.k.k.N.N.N.z.z.z.z.z.4.x.x.z.-...%.#.#.=.#.*.x , X .   .     X ",
"7.9.,.9.7.7.s.s.9.d.7.t.d.t.t.t.a.u.a.a.a.a.g.a.t.t.4.e.t.a.t.a.k.k.j.k.j.z.z.j.z.z.z.j.z.x.b.k.3.#.#...#.-.#.#.c *       .   X ",
",.,.7.,.7.7.7.7.7.0.0.t.0.t.d.t.t.a.g.a.a.a.a.t.t.t.e.7.8.e.d.t.a.a.a.k.N.N.z.z.j.z.j.j.j.u.a.z.x.4.,.@...+.-.#.*.x *   X .   . ",
",.,.7.7.>.7.7.7.7.7.0.0.0.t.t.0.t.g.d.a.a.g.a.g.t.0.6.8.0.e.t.7.8.t.d.a.a.j.j.j.j.j.j.j.j.4.4.4.j.k.4.3.%...#.#.+.+.p % .   . X ",
"7.7.:.7.7.>.>.7.7.7.7.7.9.9.9.8.7.t.t.t.t.t.t.a.t.0.e.6.6.7.t.7.y.t.t.t.i.i.i.j.j.j.j.j.j.j.j.4.4.a.e.9.8.%.@.&.#.%...r +   . . ",
":.>.>.7.>.7.>.7.7.7.7.7.,.9.6.9.6.0.6.6.e.0.t.t.t.8.6.6.6.7.6.t.0.0.t.t.a.a.4.i.j.u.j.j.j.j.k.k.4.4.t.3.&.9.,.#.#.#.#.] 0 o . . ",
":.7.7.>.7.:.7.:.,.,.,.,.,.0.,.9.6.7.7.6.6.0.7.8.7.7.8.6.6.6.6.6.7.0.0.4.3.e.4.i.u.j.4.j.j.4.k.k.a.4.t.8.&.%.9.,.%.#.X.,.T 5 X . ",
":.:.7.:.7.:.:.>.>.,.,.7.>.7.>.7.,.,.,.7.5.7.5.5.5.7.7.5.5.,.6.6.,.9.8.8.8.e.e.t.e.a.k.4.j.j.z.j.j.4.j.i.2.@.%.3.8.&...@.-.A - . ",
"7.:.:.>.:.:.7.7.>.>.>.,.7.>.7.7.,.,.,.7.,.,.5.7.5.7.5.5.5.,.,.6.6.,.&.7.8.0.0.0.i.i.k.k.i.4.4.j.j.j.j.j.2.&.@.&.t.t.&...@.#.p & ",
":.:.:.>.:.:.>.:.>.>.>.,.>.7.7.:.,.>.,.,.,.,.,.,.,.5.5.,.,.,.,.,.,.6.6.3.8.8.t.0.i.i.i.k.j.j.4.j.z.z.j.j.4.2.#.@.&.8.t.%.@.,.[ w ",
";.:.:.:.:.>.:.>.>.>.:.:.:.:.:.7.,.>.>.>.,.>.,.,.,.,.,.5.,.,.,.,.6.,.6.7.9.8.8.4.i.4.i.4.4.j.j.j.j.4.j.j.z.4.&.&.#.2.-.t.&.%.&.) ",
":.:.;.;.;.:.:.:.>.7.:.:.:.:.7.:.>.>.&.>.>.>.,.>.>.,.,.,.,.,.>.>.,.,.,.6.9.9.3.8.e.t.t.t.j.4.k.4.4.j.z.j.z.4.3.-.&.&.2.8.e.&.&.%.",
";.;.;.;.;.;.;.:.:.:.:.:.:.:.;.:.>.:.>.:.>.>.>.>.>.,.| ,.,.,.,.,.,.6.,.9.-.8.9.8.e.t.a.a.j.k.4.k.4.j.4.j.x.4.j.3.2.&.&.2.8.8.2.2.",
":.| ;.| ;.;.;.;.;.;.:.:.;.:.:.;.:.:.:.:.>.>.>.>.,.7.7.,.,.,.,.,.,.,.,.,.,.9.3.8.8.e.4.a.4.i.4.k.j.j.4.j.j.4.j.j.3.2.&.2.3.3.k.k.",
"| ;.;.| | ;.| | ;.;.;.;.;.;.;.;.$.$.:.:.,.| >.7.| | >.>.,.>.>.>.>.>.,.,.,.6.6.&.6.8.6.e.4.i.u.u.j.4.z.j.j.j.4.j.k.3.3.3.3.3.3.k.",
":.| | | ;.;.;.;.;.;.;.;.;.;.;.;.| O.O.:.$.:.:.:.>.>.>.>.,.>.>.>.%.>.>.>.,.>.,.,.,.,.7.7.6.t.t.k.i.j.i.k.j.j.4.i.k.4.4.3.3.2.3.4.",
";.:.;.| | | ;.( ( ;.;.( ;.;.;.( | O.O.;.;.:.:.:.>.>.>.>.,.>.>.>.%.>.%.>.$.>.&.&.&.,.,.,.5.5.6.t.i.i.4.k.4.4.j.j.i.i.i.i.3.3.2.4.",
";.;.| ;.( ;.( ( ;.( ( ;.( ;.;.;.$.O.:.:.;.:.:.:.,.>.:.>.>.>.>.>.$.>.>.$.>.>.>.>.,.>.>.,.&.&.6.6.4.3.i.4.j.4.j.4.k.i.i.4.u.3.3.4.",
";.;.| | ( ( ;.( ( ( ;.;.;.( ;.;.O.:.;.O.:.;.;.;.| :.$.$.>.>.>.>.$.$.$.>.$.>.>.&.>.>.,.7.6.6.2.6.6.8.8.4.j.j.4.i.4.4.4.i.4.e.4.3.",
";.;.;.( ( ;.( ( ;.( ( ( | | | :.O.;.$.O.O.O.;.:.| ,.>.$.$.>.>.$.>.$.$.$.$.$.$.$.>.,.,.6.,.&.%.6.6.2.9.e.u.u.k.4.u.4.4.u.4.4.3.3.",
";.;.;.;.;.( ( ( ( ( ( ( | | | | | ;.;.:.:.;.O.:.:.$.$.$.>.>.>.>.$.$.$.$.$.$.>.>.>.%.>.,.,.6.,.,.,.,.6.6.6.8.u.k.u.4.t.4.a.e.u.3.",
"( ;.;.( ;.( ;.( ( ( ( ( | ( | | | O.O.:.;.;.:.:.$.>.$.$.&.| >.$.$.$.$.$.$.$.$.$.>.%.&.&.,.,.,.,.,.6.6.,.2.4.3.u.u.4.4.u.4.a.u.4.",
"( ;.;.;.( ;.( ( | ( | ( ( ( ( | | | | O.O.;.:.:.,.| &.>.>.2.$.&.>.$.>.$.$.$.$.:.>.>.>.&.&.,.,.,.,.0.&.6.6.2.3.3.4.a.4.u.4.4.u.a.",
"( ;.;.( | | | ;.( ( ( ( ( ( ( ( | | | } $.| >.>.>.:.>.>.%.%.&.>.>.>.5.| 2.| | &.| >.| ,.,.,.,.6.6.7.,.6.7.2.&.2.e.t.t.4.4.0.4.t.",
";.( ( ;.;.| | ( ( ( ( ;.;.( ( ;.} | | | } >.| :.:.$.$.&.>.$.&.>.&.&.>.&.>.>.&.>.6.,.6.,.&.,.,.6.,.,.6.,.&.7.3.3.2.8.t.4.4.4.4.4.",
"( ( ;.( ;.( ( ( ( ;.( ( ( ;.;.;.| $.} | $.$.$.:.$.$.$.$.>.&.>.&.>.&.| &.| 2.| &.2.| 6.2.>.,.,.,.,.,.&.,.&.6.,.2.,.3.8.e.q.4.3.i.",
";.;.( ;.( ;.( ( ( ( ( ;.;.( ;.;.| $.,.&.| >.| &.$.>.$.>.>.%.>.>.>.,.5.5.| >.&.>.5.6.| &.>.&.&.,.,.&.,.2.2.&.6.5.0.2.7.3.4.u.3.4.",
"( | ;.( | | ( ( ( ( ( ( ( ;.( ;.} >.} | | 2.&.| $.$.$.$.>.$.>.%.>.&.>.&.>.| 2.&.| >.&.&.&.>.&.,.&.6.,.6.6.&.,.5.,.9.9.3.e.t.4.0.",
"| | ( ;.( ;.( ( ^ ( ( ( ( ( ( ( | | | >.>.| | | | $.:.:.$.:.$.>.&.&.&.&.2.| &.| 2.,.| &.2.6.,.&.&.6.,.2.5.6.5.5.&.&.&.3.3.4.4.4.",
"( ( | | ( ( | ( ^ ( ( ( ( ( ( ;.| | | | | | | | | $.@.$.$.$.$.$.&.2.&.,.,.>.| &.&.>.5.2.| 6.>.&.,.6.,.,.,.2.5.&.&.,.3.3.3.8.8.4.",
"( ( ( | ( ;.| ( ( ( ( ( ( ( ( ( | | } } | } | } | | } O.$.:.$.$.| | >.&.2.5.2.2.| &.5.| &.&.&.&.&.,.&.6.2.,.,.2.&.3.&.-.3.3.3.t.",
"! ! ~ ( } | | | ( ( ( ( ( ( ( ( | ~ } ~ | | ~ | } | | } | ,.| >.2.| 2.2.2.2.2.&.2.&.>.| 2.2.2.&.%.&.&.&.2.,.,.2.3.&.&.3.2.2.3.u.",
"^ ^ ! ~ ~ | | | ;.( ( ( ( ( ( ( ~ | | ~ ~ | | | | } | } | } &.&.| 2.| &.| 2.| &.| &.&.&.&.&.&.&.&.&.2.,.&.2.&.,.3.9.&.-.&.2.3.3.",
"^ ! ! ! ^ ( } } ( ( ( O.( | ( ( | | | | | ~ ~ } } | } &.&.| &.} 2.| 2.2.2.2.5.2.&.&.&.&.&.| 2.&.&.2.2.&.&.6.2.2.&.3.&.&.2.2.2.3.",
"Q ! ~ ! ! ! ~ ~ ^ | ( ( | | ( | | | ~ | | | | } | } | } | } | } | &.| 2.| | &.&.&.2.| &.&.&.2.2.&.&.&.&.&.&.&.2.3.,.9.3.2.2.2.3.",
"F W ^ Q ^ ! ! ~ ~ ~ / ( ( | ( ( | | | | | | | | | } | | &.} | &.&.| | &.2.2.2.&.@.&.&.&.@.&.&.&.&.&.&.,.&.2.&.&.&.2.2.2.2.2.2.2.",
"F E F W Q ^ ! ! ~ ~ ~ / ^ / ^ ^ | ~ ! | ~ } } | | } } &.| | &.} } } &.2.&.| 2.| %.&.&.@.&.@.&.&.&.&.&.&.&.&.&.2.2.2.2.2.2.2.2.2.",
"M M F F F E W Q ^ ! / / / / / / ~ ~ ~ ~ ~ ! ! } | } } } } 2.&.} } } &.} } 2.&.| @.&.&.&.&.@.&.&.&.&.&.&.2.&.&.&.&.2.2.2.2.2.2.2.",
"M M M M M M E E W ! / / / / / / ! ! ! ! ! ! } } | } } | | | } } 2.} } } &.| &.2.%.&.@.@.&.&.&.&.&.&.&.&.&.&.2.2.&.2.2.2.2.2.2.2."
};
