/* XPM */
static char *_df33a216338478eaa04dda7850d6aa20reiii6HyTu5bvbD[] = {
/* columns rows colors chars-per-pixel */
"64 64 171 2 ",
"   c #020509",
".  c #030A0D",
"X  c #080D0F",
"o  c #060C12",
"O  c #090F14",
"+  c #090F18",
"@  c #0A1016",
"#  c #0D141A",
"$  c #0F181F",
"%  c #10161D",
"&  c #12191E",
"*  c #0F1720",
"=  c #151C23",
"-  c #181F26",
";  c #171F28",
":  c #191F29",
">  c #1A2126",
",  c #1C232B",
"<  c #1E2530",
"1  c #1F2831",
"2  c #21272E",
"3  c #22282F",
"4  c #202630",
"5  c #242B33",
"6  c #282F37",
"7  c #262E39",
"8  c #282E38",
"9  c #263037",
"0  c #283037",
"q  c #27313A",
"w  c #2B333C",
"e  c #2C3641",
"r  c #2F3943",
"t  c #303740",
"y  c #323B44",
"u  c #343E4A",
"i  c #383F4B",
"p  c #36414C",
"a  c #3A434D",
"s  c #374251",
"d  c #3B4553",
"f  c #3E4954",
"g  c #3E4A59",
"h  c #404655",
"j  c #414B55",
"k  c #424D5B",
"l  c #45515D",
"z  c #49535E",
"x  c #444F60",
"c  c #465261",
"v  c #4A5564",
"b  c #4D5965",
"n  c #4B5668",
"m  c #4E5A69",
"M  c #515C66",
"N  c #515D6B",
"B  c #545D6A",
"V  c #505C6C",
"C  c #515D6E",
"Z  c #545D6C",
"A  c #555F70",
"S  c #516067",
"D  c #55616D",
"F  c #56606C",
"G  c #55616F",
"H  c #58636F",
"J  c #59656E",
"K  c #5B696F",
"L  c #546271",
"P  c #566374",
"I  c #5A6573",
"U  c #5A6772",
"Y  c #596675",
"T  c #5E6674",
"R  c #5D6974",
"E  c #5E6976",
"W  c #5B6778",
"Q  c #5C6979",
"!  c #5E6B79",
"~  c #616D77",
"^  c #616B79",
"/  c #606D78",
"(  c #626D7B",
")  c #646F7B",
"_  c #65727C",
"`  c #68707F",
"'  c #68757E",
"]  c #626E80",
"[  c #657281",
"{  c #697181",
"}  c #697582",
"|  c #6A7782",
" . c #6C7584",
".. c #6B7883",
"X. c #6C7985",
"o. c #6D7A84",
"O. c #6E7A85",
"+. c #6F7B88",
"@. c #6F7C8A",
"#. c #717D86",
"$. c #737C8B",
"%. c #717E8B",
"&. c #767E8E",
"*. c #74808A",
"=. c #75828C",
"-. c #77838F",
";. c #79858E",
":. c #7C898F",
">. c #768391",
",. c #798592",
"<. c #7B8792",
"1. c #7C8692",
"2. c #7D8A94",
"3. c #7E8B99",
"4. c #828D95",
"5. c #818C97",
"6. c #828D97",
"7. c #868F9C",
"8. c #829196",
"9. c #86919B",
"0. c #85929B",
"q. c #89959D",
"w. c #8B959F",
"e. c #8D989F",
"r. c #8A95A0",
"t. c #8E97A2",
"y. c #8E9AA3",
"u. c #929DA5",
"i. c #939EA9",
"p. c #95A0A7",
"a. c #98A1A7",
"s. c #96A2AA",
"d. c #9AA4AC",
"f. c #9DA8AF",
"g. c #9DA6B1",
"h. c #9FA9B1",
"j. c #A2AAAF",
"k. c #A3ADB4",
"l. c #A8AFB6",
"z. c #A7AFB8",
"x. c #A8AEB8",
"c. c #A6B1B7",
"v. c #A9B0B7",
"b. c #A6B1B9",
"n. c #ABB4BB",
"m. c #AFB8BF",
"M. c #B1B7BE",
"N. c #B1B9BF",
"B. c #AFBAC0",
"V. c #B0B7C0",
"C. c #B4BCC3",
"Z. c #B9BEC4",
"A. c #B8BFC8",
"S. c #B7C1C6",
"D. c #BBC1C6",
"F. c #BDC3C9",
"G. c #C2C6CC",
"H. c #C4C9CE",
"J. c #C8CACF",
"K. c #C6CAD1",
"L. c #CACDD4",
"P. c #CDD1D6",
"I. c #CFD1D9",
"U. c #D0D2D7",
"Y. c #D2D5DB",
"T. c #D6D8DD",
"R. c #D9DADE",
"E. c #DCDDE1",
"W. c #E0DFE4",
"Q. c #DEE0E4",
"!. c #E1E1E5",
/* pixels */
"              . O X @ $ & & # X . . O & 2 2 5 5 w 0 w y i k A { ) #.o.' I M v k j z z h a y u v V n n c x g g g g g g g v C L I ",
"        .   . . O o o @ $ & # X . . O = - 2 5 0 w i w a k Z ^ J B o...~ I M v j h h k j h i f V Z V v v x g u s g d p s g C I Q ",
"        . . . o X . O @ # # X X .   @ > 2 5 6 w h z z M A  .$.) ) -.o.I M v l h h h j l h h h v Z n k x k d d g g d s d g n P Y ",
"      . X . . o . o O # & o . . . . % 3 5 0 y a z B ~ ` &.5.1.o.&.1.} E M h p j l h j v b j d h n c f s g c v m n v n n m m c c ",
"      X X . . o X X X & & @ . . X % 2 0 w i k z B ~  .&.7.t.t.5.0.5.%.I m k d j h h z M T I k s f f d d x n A A v n m L m n g g ",
"      X X . . o # & & 2 , # % & > 5 0 w w a b I  .$.o. .1.t.u.u.i.4.( M v k s a d h k M E  .^ v c c x A A c M Z m v m v c c c c ",
"      O o   . . @ % > 3 5 > > - 2 5 6 6 w j T T ` o.{ T { 5.w.7.&.( b k f u i i a d h l T $.&. . .^ A ] A c A V v c n g g c v v ",
"  .   O o . . . X % & > 0 2 2 > , 3 5 w y z ^ ( ~ A b j b ) { ` E Z c c g s y w w u i d n $.&.) ^ ) ^ ] A n Z V m v g g g g x c ",
"  X X % + . . X o # % & , > , , 2 5 2 5 8 8 8 y i i a d j v M H I M m n m M k f d h d h n ^ ^ n g c n n v v m m c g g g n v c v ",
"O X # - + . o O @ # % % > > > , > - - = @ # % O = 5 0 y p h k M I v V Z I L v v b B I I M n v j s s u u d c g d s s g g b g l G ",
"+ + = = + O O O X # % # & & & - = - - X . X O X # , 2 w a a l b N N C Z I V V C Z I ^ ] L v n k g u e 7 u d u s s s s d g g c m ",
"% % > = + % + + @ # # # % % % # @ % % # O . + % % % 2 w a y d k k v L L Z V B C v v V ^ Q Z M v c g s u g d u g g g g g g c c c ",
"> 2 > - - = = % & # @ @ O @ @ @ O o O # % # & 2 > - 3 w y w w t a k M A A Z M M v k g v I I L A C C k x n c g k g s s x c m x x ",
"2 > > - - = # % % % # @ @ @ # @ O X @ # & 2 3 2 2 & 3 w y w 5 6 r j n A A B c k h d y i n I I I Z m v L L n v g s r p s c c g c ",
"2 & % % # + @ + % & & & & - & & @ # @ % & 3 2 - - = 3 w w w 6 6 i k v n Z Z n k g g d j v I Z M v v m L n x g s s s s s x g g c ",
"- & % O # # + = - > - 2 2 2 - = # @ # @ % 2 2 2 , : 6 i a h d h f k n n C Z v k f k c n I T T L M v v V g s g g g g s s s g x c ",
"2 - & % % % = 2 5 5 6 8 6 2 : - = & % = & = 2 w w y y a z J M v v v v v n m m v g l c n v v m m M v n C g g g c g g g g s g c x ",
"- 2 3 - & & - 6 8 w 8 8 5 4 2 > > - = % > 2 4 2 w i a i h ^ B B G Z L C C A L C v c v b n c g g m n L Z c g c v v n x g g g c g ",
"& - - 2 - = 2 8 6 8 8 8 5 : : 2 > - = - 6 y y 6 h J z y w j ^ ^ M v m m L P L L m v b v n m c A P m E I n c c c b b c g x S c g ",
"& & & & = - 8 8 6 8 8 8 5 2 - - - > 4 8 i y 5 > 5 B M j i t k ~ ` v d k C L P L L N m C L ( ( @.%.[ _ P A m C c l g x x n L n g ",
"% % = % & : 8 8 4 4 8 6 2 & % % - 2 2 2 3 5 2 @ @ z T ~ M j y h ~ 4.A b m P Y [ [ [ ! Q Q >.3.3.0.3.>.@.( ( ] L n c c L Q Y L S ",
"= % = = = , w 8 5 4 4 : & @ # % % % & - - - % X . h T ~ K Z h z z  .i.#.c l c Y @.@.[ Q Y *.3.3.3.@.-.3.*.*.@.[ ] L P ] *.*.*.*.",
"- = - = - 3 w w 6 4 2 2 > > - = % & & - = + X   o i M J ~ ~ ~ j ~ v ;.i.<.U P ! _ _ ! [ ! *.,.3.>.[ _ ,.3.>.>.@.*.Y *.>.>.3.*.>.",
": - - - > 5 w w 8 8 8 0 6 3 , > - > - - % o X   % y M J ~ ~ #.~ ;.4.;.u.q.3.*.[ ! ! Q ( ( >.3.3.@.Q } >.3.3.>.@.>.>.3.3.3.3.3.3.",
"2 : , : - , 8 w w 0 6 6 3 , > = 2 2 2 & # @ X . > p z ~ ' 4.e.0.j.z.k.d.y.0.,._ I m v C ! @.>.3.@.[ @.&.&.3.&.&.>.3.3.i.3.i.s.g.",
"2 , 2 : - , , 5 6 0 6 3 , , > , - 2 2 & % % @ . 5 a K e.e.l.0.4.k.d.d.k.s.4.-.Q m g g b Y _ *.>.>.[ @.3.&.3.3.7.f.3.g.g.b.b.g.b.",
"8 4 < : = , : , < 6 5 6 9 3 5 , - 2 2 = % # X @ w k *.e.4.e.4.4.d.u.4.q.s.i.0.-._ S l g l D [ >.3.3.>.3.r.i.g.g.h.h.h.s.g.b.b.b.",
"y 8 4 2 , , , : > > < 3 9 3 1 , , > - & & & % & a K 0.e.4.4.e.i.a.a.r.q.s.s.s.q.,.*.*.! b K :.r.y.i.i.i.r.i.i.g.h.h.h.b.b.b.B.A.",
"7 8 w 8 5 , , : > = = , 4 4 1 < , - = & & = - 2 z 8.u.u.d.0.4.e.q.s.d.q.q.y.y.s.s.s.y.2.@.7.s.h.g.g.g.g.g.g.V.g.g.z.z.V.B.B.A.A.",
"4 7 q q 0 6 1 : = = = - , 4 5 5 3 , > 2 0 w w y b e.k.d.j.a.i.a.e.c.V.k.s.u.s.c.b.k.h.s.y.h.n.n.B.b.b.z.V.A.V.V.A.B.V.A.B.A.A.A.",
"4 5 5 q t q 5 , , ; : : , , , 1 w t f z M M M k S 0.v.v.l.j.k.l.v.n.V.V.d.y.s.b.m.b.h.f.h.b.C.C.C.V.V.V.A.I.L.A.A.A.F.A.F.A.B.A.",
"= = = , 6 q 5 1 , , , , > = < r z K ~ ~ K J B M o.p.n.D.C.M.M.M.n.N.V.C.n.p.s.b.m.b.b.h.h.B.D.F.F.A.A.A.F.I.F.F.L.F.F.F.F.A.A.A.",
"= & $ $ * 1 1 1 , , 3 9 w t y a z b z z z z z S #.d.N.H.G.G.H.H.F.D.F.G.F.k.d.b.b.b.n.b.b.m.S.H.F.F.S.F.K.L.P.P.U.P.K.H.F.F.G.H.",
"& $ $ O + * > , > > , w a w w p f z z b G K ~ *.e.D.J.J.L.T.U.U.K.F.F.H.H.C.m.h.k.c.c.b.b.B.S.F.H.H.G.H.P.U.Y.Y.T.I.P.K.K.K.H.L.",
"# # $ $ # + $ $ = = > , 3 w p f j z K ' *.*.:.8.n.P.J.U.R.Q.E.T.P.J.H.H.F.F.V.c.h.h.h.k.b.m.S.F.H.H.H.J.Y.T.T.T.Y.Y.Y.P.K.L.P.U.",
"O X + $ $ $ @ @ # $ & > 0 a l z S ~ ' _ _ :.e.j.J.U.U.R.E.E.R.R.T.P.L.K.F.F.S.b.n.b.k.h.B.S.F.H.J.J.J.P.Y.T.T.T.T.I.I.P.L.L.Y.T.",
". o o @ $ $ # @ @ + $ 1 p z S K ~ o.~ K o.:.a.D.T.R.E.Q.!.E.R.R.E.E.P.H.H.D.C.b.S.S.B.B.F.F.I.I.P.K.L.Y.R.E.T.T.Y.I.L.K.K.I.Y.Y.",
"o o o + # # # $ # @ > w f S K K ' K b K o.8.c.P.R.E.Q.!.E.U.U.R.Q.E.P.H.G.F.F.C.F.F.F.F.F.I.Y.Y.I.P.P.T.E.E.E.Q.Y.I.L.L.L.I.I.Y.",
"o o + # # $ $ $ # > w f b K .._ S a z ' :.f.F.U.Q.Q.Q.Q.T.U.U.R.E.E.T.P.P.H.F.D.F.F.I.F.L.I.E.I.I.P.K.U.T.E.T.T.Y.I.L.L.L.I.Y.I.",
"O o O # # $ # # , p f b K _ *.b p K :.e.f.D.L.T.W.!.E.E.R.T.T.R.E.E.R.T.P.H.F.F.S.S.F.F.F.I.I.P.P.H.F.L.Y.T.Y.T.Y.L.L.K.I.I.Y.Y.",
"@ O O + $ $ $ 9 f S S ~ #.:.S f ~ 0.f.n.D.L.Y.E.Q.R.R.R.R.R.U.U.E.E.R.T.Y.P.P.G.S.N.D.H.K.P.L.L.I.G.G.G.I.Y.I.Y.E.L.L.L.I.Y.Y.Y.",
"# # # + = 9 s v S K ' :.2.*.S _ u.h.b.S.L.I.E.E.!.R.R.R.R.R.T.R.E.E.R.T.T.T.Y.P.D.D.G.L.L.L.L.L.L.L.G.G.I.Y.L.L.Y.Y.I.L.I.I.Y.Y.",
"O # $ > p S K S E =.3.3.2.K _ e.h.n.C.K.I.E.E.E.!.T.P.Y.R.T.T.R.E.E.E.T.T.T.T.U.J.F.J.P.P.L.P.J.L.K.G.K.L.I.L.L.I.Y.I.I.I.I.I.I.",
"O # , d S K _ =.-.p.s.u.=.S :.f.n.S.K.I.Y.I.L.I.R.Y.L.K.L.L.T.R.R.E.T.U.U.P.P.U.L.J.L.P.P.P.P.J.K.L.L.L.L.K.L.L.L.L.L.L.L.I.I.I.",
"@ > g S K *.*.=.3.f.f.f._ L y.k.B.F.P.I.I.L.L.Y.E.T.I.L.L.L.R.!.E.E.T.U.U.U.U.T.Y.P.L.P.P.I.P.H.G.L.I.I.L.K.L.L.L.L.L.L.I.I.I.L.",
"$ q b K 2.s.e.2.f.h.h.3.S _ h.n.C.K.P.Y.I.G.G.T.R.T.T.Y.U.J.L.R.R.T.U.G.G.J.L.U.U.K.H.J.P.P.J.H.G.K.I.I.L.I.I.I.I.K.K.K.I.I.I.I.",
", f S _ p.c.s.p.f.b.k.:.K *.b.C.D.L.U.T.U.N.Z.P.E.T.T.U.Y.L.U.U.U.J.H.G.N.D.U.U.Y.P.L.P.P.I.L.H.K.L.Y.I.L.I.I.Y.I.K.G.K.L.I.Y.I.",
"q l K =.c.c.p.p.f.b.f.>.K *.n.F.F.L.U.U.J.G.G.U.Q.R.T.T.T.U.U.U.P.G.N.G.D.G.U.U.Y.P.I.Y.I.I.P.L.L.Y.Y.Y.I.L.L.Y.I.K.K.K.L.I.Y.I.",
"p b K :.b.b.d.p.f.b.s.0.( _ b.S.K.K.P.P.P.P.T.R.E.Q.R.R.U.T.U.U.L.G.Z.Z.G.K.I.Y.Y.Y.I.Y.Y.I.I.L.I.Y.Y.Y.I.I.I.I.I.I.L.K.L.L.I.I.",
"q v Y >.d.h.d.d.h.d.y.q.o.! r.S.G.H.K.I.P.Y.R.R.E.E.R.R.T.U.U.U.L.G.F.Z.F.G.I.I.Y.I.E.Y.Y.Y.Y.Y.I.Y.T.Y.I.I.I.I.I.I.L.K.K.I.L.I.",
"5 g S _ q.d.d.d.d.s.q.0.*.S _ d.M.F.H.L.P.Y.T.T.R.R.R.R.T.U.I.U.K.G.S.V.V.F.L.U.I.I.I.I.Y.Y.I.Y.Y.Y.Y.Y.Y.Y.T.T.Y.I.K.K.L.L.L.L.",
"> r L *.q.b.k.h.d.p.0.q.=.K b _ p.N.F.H.P.I.Y.T.T.T.T.T.U.J.P.J.G.Z.C.n.x.C.G.L.K.K.K.I.E.Y.U.I.Y.Y.I.I.Y.Y.T.T.Y.I.K.S.L.L.L.L.",
"r p m @.2.s.h.d.s.y.q.y.3.*.K S ~ q.M.F.G.L.U.U.U.T.T.T.P.J.J.H.Z.Z.D.N.n.n.Z.J.K.K.I.I.I.I.E.I.Y.Y.I.I.I.I.Y.T.Y.U.L.J.L.L.L.L.",
"p p r g E =.q.p.p.0.3.s.r.3.*._ R -.u.N.C.F.H.J.P.U.Y.U.P.H.H.G.G.Z.Z.Z.V.M.C.A.A.L.L.Y.I.I.L.E.T.Y.I.I.I.I.I.I.Y.Y.L.K.K.L.I.I.",
"q 9 < , w Z o.0.q.0.3.y.y.r.0.:.;.r.a.j.k.j.v.F.H.P.P.U.L.J.H.H.G.F.C.M.M.M.C.A.F.K.L.I.I.L.K.L.Y.Y.Y.I.I.I.I.I.Y.U.I.L.K.L.I.Y.",
"5 1 * * & 9 z ~ *.2.3.y.y.q.e.e.4.u.u.q.u.a.f.n.D.G.J.P.L.J.J.H.F.D.Z.M.x.x.Z.G.K.K.L.I.I.L.J.G.K.I.Y.Y.I.L.L.L.I.I.I.I.U.I.I.Y.",
"1 > = # # $ 9 f K ' *.=.3.8.0.e.e.d.p.e.0.y.p.c.M.N.G.L.L.J.J.D.D.D.S.C.B.c.D.H.L.L.L.I.Y.Y.L.G.F.G.L.L.L.L.K.L.L.I.I.I.I.Y.Y.E.",
"1 > > $ $ # # , p b K K _ #.:.2.8.e.p.y.p.y.s.b.n.m.D.D.D.G.G.D.N.S.D.D.D.m.n.H.I.U.L.L.I.Y.Y.K.Z.F.G.J.K.K.K.L.I.L.I.I.I.Y.E.U.",
"< = $ > $ $ $ $ $ 1 p g z S K ~ ~ ' ' *.2.:.8.f.c.c.c.j.m.N.S.S.c.j.m.V.D.C.n.D.K.U.U.U.I.Y.E.I.J.Z.A.G.G.G.K.L.L.L.I.I.Y.Y.R.R.",
"= > > = $ > = $ $ # $ = , 9 w q 9 9 p a z S K *.0.u.p.d.c.n.m.N.n.j.c.N.C.N.c.c.G.U.U.U.I.U.U.E.I.G.A.A.G.G.G.L.I.L.L.I.T.Y.T.R.",
"> > * = $ = = = $ $ $ o X @ = 1 5 9 9 w t y a j j M *.f.b.B.B.N.V.n.n.V.C.B.k.u.x.G.U.U.I.I.Y.R.U.L.G.Z.G.G.L.I.I.I.I.Y.T.T.E.E.",
"> = = ; = = = = = $ # # @ 1 p f j f a p y w y j a p S 4.p.f.c.B.V.n.C.S.D.F.n.q.i.Z.L.U.U.U.Y.Y.Y.U.K.Z.G.G.K.I.I.Y.Y.Y.R.R.E.T.",
", = ; = = = > $ = = $ $ 1 f b z z S S j l l z z M K #.;.2.u.p.f.k.n.B.C.F.F.D.p.g.C.J.U.U.J.I.Y.Y.I.U.K.G.G.G.L.I.Y.Y.R.R.R.Y.W.",
"< > = ; = = = > = > $ = p z K S S S K ' :.e.q.:.' 8.u.8.e.u.e.y.s.h.b.B.S.H.C.n.V.Z.L.I.I.L.L.I.Y.I.I.L.K.G.L.I.I.I.Y.T.R.R.W.E."
};
