/* XPM */
static char *_ea5f32507c242b68741ad9eb8328376D75IrHtdvqiUmdf2[] = {
/* columns rows colors chars-per-pixel */
"64 64 200 2 ",
"   c #131D35",
".  c #131E39",
"X  c #152236",
"o  c #192437",
"O  c #15243C",
"+  c #19263C",
"@  c #162A3E",
"#  c #1B2A3E",
"$  c #212C3E",
"%  c #152642",
"&  c #1A2741",
"*  c #162944",
"=  c #1B2B44",
"-  c #142749",
";  c #162C4A",
":  c #1B2E4A",
">  c #1D3146",
",  c #17304C",
"<  c #1C324C",
"1  c #1E394E",
"2  c #173151",
"3  c #1C3453",
"4  c #1D3954",
"5  c #1C375A",
"6  c #1D3B5B",
"7  c #222D43",
"8  c #292D45",
"9  c #222E4A",
"0  c #282D49",
"q  c #233246",
"w  c #2A3246",
"e  c #22334C",
"r  c #2A344B",
"t  c #23394D",
"y  c #2B394E",
"u  c #33354C",
"i  c #32394E",
"p  c #38384E",
"a  c #233653",
"s  c #293553",
"d  c #233B54",
"f  c #2B3B54",
"g  c #23375A",
"h  c #293759",
"j  c #233D5B",
"k  c #2B3D5B",
"l  c #323752",
"z  c #323C54",
"x  c #383E54",
"c  c #323D5B",
"v  c #393E5A",
"b  c #1F3D60",
"n  c #203E60",
"m  c #2B3D61",
"M  c #333E62",
"N  c #423C50",
"B  c #1E405D",
"V  c #2A404F",
"C  c #244157",
"Z  c #2B4155",
"A  c #24425C",
"S  c #2B425D",
"D  c #2D4A5E",
"F  c #324156",
"G  c #3B4256",
"H  c #33435C",
"J  c #3C445D",
"K  c #32495F",
"L  c #3C4A5E",
"P  c #1F4262",
"I  c #244463",
"U  c #2B4463",
"Y  c #254965",
"T  c #2C4A64",
"R  c #244669",
"E  c #2C476A",
"W  c #254A69",
"Q  c #254B6B",
"!  c #254D6A",
"~  c #2C4C6B",
"^  c #334463",
"/  c #3A4563",
"(  c #334A64",
")  c #3B4A64",
"_  c #344569",
"`  c #3A476A",
"'  c #334C6B",
"]  c #3B4C6B",
"[  c #2C5067",
"{  c #26506E",
"}  c #2C526C",
"|  c #29546D",
" . c #375065",
".. c #395067",
"X. c #34526D",
"o. c #3B526D",
"O. c #31596E",
"+. c #3A596F",
"@. c #264D73",
"#. c #2B4E71",
"$. c #334D71",
"%. c #3A4D71",
"&. c #275271",
"*. c #2B5372",
"=. c #2B5571",
"-. c #2E5975",
";. c #2E5679",
":. c #2D5A7A",
">. c #325772",
",. c #345473",
"<. c #3B5472",
"1. c #345A75",
"2. c #3C5975",
"3. c #33567B",
"4. c #3D5678",
"5. c #325A79",
"6. c #345C7B",
"7. c #3B5C7B",
"8. c #33607D",
"9. c #3B617D",
"0. c #43425D",
"q. c #4B435C",
"w. c #424A5E",
"e. c #4A495E",
"r. c #444663",
"t. c #444C64",
"y. c #4B4D65",
"u. c #44476B",
"i. c #434C6C",
"p. c #4B4C6B",
"a. c #534D67",
"s. c #584D66",
"d. c #445066",
"f. c #495164",
"g. c #43526C",
"h. c #4A536C",
"j. c #47596E",
"k. c #4D596E",
"l. c #54546A",
"z. c #5E546E",
"x. c #53596D",
"c. c #5C5A6B",
"v. c #435472",
"b. c #4A5472",
"n. c #435A75",
"m. c #4B5B75",
"M. c #46567B",
"N. c #435C7A",
"B. c #4B5D79",
"V. c #545471",
"C. c #515C74",
"Z. c #5B5B75",
"A. c #545579",
"S. c #525B7A",
"D. c #5A5D7B",
"F. c #605571",
"G. c #635D78",
"H. c #44627D",
"J. c #4C627C",
"K. c #576277",
"L. c #53637C",
"P. c #5B637C",
"I. c #5E697F",
"U. c #61617C",
"Y. c #6C637E",
"T. c #345E82",
"R. c #366282",
"E. c #3D6483",
"W. c #39688B",
"Q. c #445F81",
"!. c #436381",
"~. c #4C6482",
"^. c #476883",
"/. c #4B6A85",
"(. c #446C89",
"). c #4B6E8A",
"_. c #546582",
"`. c #536982",
"'. c #5B6B83",
"]. c #556D89",
"[. c #596C8A",
"{. c #40718D",
"}. c #4A7089",
"|. c #53728D",
" X c #5A728B",
".X c #547392",
"XX c #5D7592",
"oX c #5C7E97",
"OX c #5C7698",
"+X c #676583",
"@X c #616F88",
"#X c #716B87",
"$X c #687081",
"%X c #647289",
"&X c #6C788F",
"*X c #687B91",
"=X c #647A98",
"-X c #6A859B",
";X c #758194",
":X c #5485A1",
/* pixels */
"= = @ + f F = > = O * t = * * * = * o 7 O : H = * = < * # # * : 4 , d > I | | 6.*.{ >.N.v.>.W W @.6.W )./.2 3 4 6 P P 6 P ~ E b ",
"d < 1 @ + q f e < O & = * * * * * # # 7 O O = & * * * d f q O * a < : 4 { | >.5.5.:.:.*.=.| ! ! 8.;.P I T 6 I 4 4 4 4 ; 3 W I 6 ",
"d e S j d S Z ( -X~.q f a % = O . + > q 7 O * * < < * = e = & q = < < 4 ! >.1.} >.5.=.! | -.:.=.! ;.Y 6 P Y Y P I d + * 5 W R W ",
": c 9 a d 1 : < m.( < : : = = e + = a : : + = : j 4 % O & * d S > 3 ; ; ; 4 4 I 1.Y Y Y Y ! *.1.4 4 I 5 2 ; 4 6 4 * 7 j 6 P W W ",
"q t < : d d = < 1 ; 1 @ X # # e : * + f t   . * 3 : a : O O : * = a : j 3 e : a I 6 5 6 Y W I A < % ; < = * < A 4 % k ' U H.I 6 ",
"t S d * > > = 7 H d D C * = > : a : & F S m.G + : : q F = O + +   7 : : k f * % % - - 2 U ~ j : d = ; = O = 4 A 3 4 U d }.oXR 6 ",
"d < 1 d F e > y F d ( U 4 a < < = t 7 O F ;Xk.* d U 4 4 a t : = * : : = d ( 3 - ; 2 ; a : < a a S a = 9 q * : 3 ; 2 j A T Y W n ",
"S L e A ' T A U 1 3 3 4 U ) e = : : f y q e 1 = d U j U j g < < 3 2 : ; : U o.6 4 4 j 4 3 6 2 2 ; < f f q 7 & + d j 4 Y W W { I ",
"[ ( t j A A 3 3 < : < < d C = 7 a : q J 9 * * * q > j j 4 A 4 ; 2 j j < < : g R 6 I 6.I R 6 4 4 U v.( e : * 3 = o.R 4 ' *.I W Y ",
"4 T A d 1 d 1 d d d f = = < < : # # q : = : * * + : 9 ; d m.K : : j X.I 3 < 2 I j W ! >.1.! ! [ 9...= + = O O O * : * & < 6 5 I ",
"3 j Z f > d d t t j t = 3 a 4 4 e < j 3 1 q f 2 j S < < : ) C./ : g I 6 U a a 6 j I =.(.1.I | ! I P 5 3 = o & * + # o 7 + . : < ",
"].' n...d T D C 4 A d a j 3 < A j j S < 2 d t 3 A U : 3 ; < j j * : j 6 E > : 3 4 5 I *.=.I 6 ~ I I I R K & : : : a = * X + F # ",
"H.1.~ Y A A A I U T A T a < = < 4 j d e < 4 ( C A ' d > 4 3 6 B 4 = a I I I A I 6 6 6 6 I I 3 4 b I R I ~ = + % F m.g : + y t.q ",
"A 1.1.} X.A 4 4 j ) A 3 t d 4 1 > 3 = @ : I I I I ,.U ; 4 6 I n 6 : O j >.9.-.! R R 4 I *.~ 4 ; 3 b ! R U q     + 7 : 9 = q i 8 ",
"D X.O.} } A d Z K t < < f K < > * = @ O + = < A B X.X.A j 4 4 4 5 < = < ' 5.-.&.;.Y * , A U : a ] < 3 3 + X   O + J = * = * o . ",
"L ( X.I Y Y A ( j > = # r q = e < f d < * = = A B O.} W R X.+.A A j d : ; B I I W 6 : k < 6 3 U U 4 5 4 1 ) ) * = a * < ( ( + < ",
"+ / J.g : < 4 > > d S 3 A j j A I S N.I : < + < j ~ >.I ! /. X7.I I ' < < R 6 5 I 7.U U 3 ; ; 3 3 6 P 2 3 ( K > < 2 * % j d : < ",
"c f j T 6 B T g K t A 6 6 I I S ' U ' I : 7 # = q ) B.3 6 A C E 4 2 : ; < j I j j E ' : * + & = * ; 3 > < 9 + = = = O . < 3 : < ",
"m.' 6 j j 4 Y T E S A A 4 ~ R ' X.' j 4 > : r 8 J f.q * * > = < 3 3 k a < a U 2 g , 4 3 O O O X O & 7   q h.7 f q = O + & : = = ",
"9 1 j A d g 3 j g S C d 4 j 6 j U U g = A U t.7 q 9 = & : 1 : : a S J.' 4 2 4 < < 4 P 6 * & 9 o O e a O + y w r : a & O # @ q 7 ",
"& x k k E T 4 a U a > 4 A g a t t < a H `.#.j f 3 a S t a ^ 3 < f s k j 6 b I 6 A I I R ' f k e * = : q q * f w O : : T 9.A t t ",
"c x r f ' j I <.,.g d ( U U ( b.A 6 : h.L.E X.j.t a f : : S T A t H S U I T 2.R j 4 4 I S e 6 j 4 A E j < 3 : = # d I W R U < > ",
"_.^ a b.] j T 4.( j ( *X] S j S I R k S a j ( f = = : < s m.b.U f l e _ N.A j 6 6 3 a S < f U I U ' I j g 3 ; 7 L T 6 4 < * : * ",
"H.U < k d a a U ^ 4 < k o.d S j.j A K k g < S g : 7 y 1 d ;XC.3 a * & G F A < ; 4 g S e * = t & q f = = : a e l C I 6 : = * * < ",
"A j 3 a ( U a a F k U / H H S A 3 4 T j 4 < 4 I j f e a g g.g.d 4 a q w q j j q H m.t = = < A K H r 7 + + * = = O O = = + + O + ",
"j j a f ) U U H g.] ( S / d.S A U S A j 2 3 < j E k e f k U v.S j j g d < j ' j f ) r = * : S f > O + = = t ^ H e g.q + : < : * ",
"I n 5 j d S ..'.L.j d <.2.L.K E ,.o.a 4 j k C m.U g a c k 3 m k 3 4 A T A d ( U > + q q = > e > = # + # r C.Z t z i.f a : 3 1 = ",
"5 U ' g h g j j ' ,.d.g.' E U ( <.( a 3 A j d K j U U e < e f k : 3 j 4 < * t f +   y ) r # = > < < O 7 w y + = t f ) z * = = + ",
"^ S j 3 < : j j U X.&XI.<.R 6 _ m.N.k 3 A j j j ( ..I S g.d.f d f & a g g a F $Xw.O = e t.r @ 4 j A > H f r = O = = y Z = = i q ",
"U f e g S : s F K j b./ j T I ] g.' j e j A j E ' X.>.W $.' S ( o.a a U U a q t.f 3 3 : a < : > = a g : # + 7 + 7 $ X # > f L 7 ",
"I U o.' ] k 9 h.( j S S 3 E /.T ^ / o.a a A T j 4 4 U ,.R A U E I R g j 3 < = : e a g a > = e f t = : : # & +   + + + * O q q # ",
"I I ^ [.] k k ) ' I ' E n.' ,.' j f ) C f d ~ ~ j S S ! >.o.' I R I 6 a : e t d f t < f < : # t < : w.p w 9 q 7 O 7 F f r f * + ",
"j j g _ ^ _ k H h.] / m <.^ v.' a c H J.d.d T J.g.B._ ~ .XB.) j 6 5 j g 3 g ^ t a c a 3 t q q t t t k.t.q q F H # q 7 y f.J q : ",
"k / j g A U S f t S f q z H c y.G y y S.[.U S T ( T U S ^.!.U ( j j ' H s e a 1 j q q a < # = Z d j H F ^ q = q @ X + y z f < S ",
"c f k U I ' ' ( a g a q F o._ h.L.' ^ ( 4.( k S U j a j U ,.X.' ^ ( 7.U j a q < t q 7 : q f > q f t = q ) q 7 t < : * : < e = 1 ",
"y F C.g.` %.E W U ) H r.f H g.b.~ ~ v.n.U ] w.l.K.k d ^ / v.,.S z J ( E I A < j g a < > q f * q H 9 + + w 7 7 * < < * + @ * : < ",
"g a H ^ k m ' ' n.%XH r.y s ) F ^ n.H / S ' c e.N w H f S n.T D k f f I 4 9 = j R j d Z f > = o + * O # u p w t.y : : + O = e + ",
"I 4 a e a j n.S.I.I.^ / ) f k H k o.] ^ k H ^ h.y.f ) Z U U X.} X.2.j k U k ) t S a d Z V > q q + : > q w.w.7 r 7 < : + q z F = ",
"~ S k s c c k v.m.o.U ( ' C ) B.U ] N.' d.I.b.n.n.( ].2.~ 2.' ,./..XU f C j s 7 7 d < # # # # # + X o 8 w 7 t L J a < e J t.f q ",
"' S a s f 0.J / ` ' S g.w.J f.t.' F ( ( '.P.H U U @X'.S ] J.+.A ( E ~ X.S g 2 k z 1 t 1 d q # 7 7 + # 8 8 + t h.J * < H C.o.U U ",
"] / k c l q.l k ^ k ^ / w.t./ H F / ^ 2.J.g.f ' } _.v.T 2.E A 4 X.7.~ <./ f 3 U a .. .A t q : q 9 : > d H c U o.d.7 q z t.^ 3 < ",
") ] k s p.r.c t.r./ ( <.U U ' U H ( ] 7.2.' o.( >.X.2.7.*.I I [ 2.<.X.A q z a a d d U S < f a d : : t = 9 e a d S q J f a < r # ",
"] ( E k / M / a.a.J ^ ] ( ,.U U ' ~ U #.6.#.~ U 6.!.T T !.9.~ X.+.H.}.U a D ^ t : t A j A ( k ] v.f k.c : a s : ; : h ' U j t a ",
"i.i._ k ` c r.F.G./ ( ' $.4.^ U $.E I j ~ W T ' ,.^.T A >.-.Y U ~ Y =.E E ' j t < t j ' U j < w.x.J ) U U j 9 k A 6 _ |.A j j 6 ",
"S.C._ ' ^ / r.Y.U.i.U U W ( ^ n.<.o.n.<.O.).).2.N.E.,.>.=.1.~ A U U =.>.,.U a d : : k ..+.<.: 7 t d D <.U j e S E W ! ;.3.<.I 5 ",
"2.i.$.4.` i.h.+XD.i.U U ] L.d.S. X X!.!.7.7.,.J.n.>.*.! 7./.X.A U ~ *.5.7.~ ( k < < : 3 j j 1 = < 3 S ( g a e . = : I @.6.(.#.R ",
".X` ` m c k a M M _ k U ^ b.B.v._.n.<.' _ ' ' ^ U ' *.W ,.7.,.T I T } -.>.I A a < g g 2 j 3 > < : d H f : j ^ z w u / j } E.*.I ",
"3.$.i.` b./ ] ( ,.~ o.J.<.,.7.7.X.<.] ( j.] ^ ( X.' } 5.>.=.;.*.T Y W [ 6.I j h.K o.' ' ' X.k A d a s 0 q f k H p c.z q k d A T ",
"6.n.i.` v.] i.b.<.' X.v.' >.1.X.J.H.|.n.H.9.2.<.U j U T W R R <.`.} Y A T d d F y t : S ^ 2.4 #.6.7.k s c H s k K.x.F t F q = = ",
"^ ] B.v.U m ^ ] ^ ( N.J.v.' B.<.H.,.7.<.X.' <.7.~ A ^ ' } X.S 2.=X,.! A v.] S f < * : z H S j *.T.-.R j 3 2 g 4 T U T D Z t > # ",
"k ( ~ ~ W I ( ^ k ^ ] j.( S E 7.<.m.].!.' ' ~ >.' U ' X.A ' U I N.H.} A N.m.v.U 4 = 7 t e t g ! T.6.>.E 5 6 6 I 5.~ T A d d d < ",
"^ ,.4.,.~ I ( g.^ ) ) ' ) ] I E b.) ' ,.~ ( o.' ~ *.T.(.W I T g S S A W T T U I g > q q = < 1 d ! E.(.W 6 P P *.-.5.} | I I j 6 ",
"H ] S.%.<.k c i.r.J t.t.] / ( _ ^ U F g.,.,.' R #.I I R E o...( C j ' 2.} [ d j A d Z t : t ) k a j U 6 6 A 6 *.*.1.| :.&.! *.*.",
"] V.V.u._ ] i.m u.h.V.x.K.H H ) ] ` i.t.B.<.] ' ~ ~ I U U K X.2.+.S  ...A j S S } d e d 4 K g.U j v.U 6 3 e : W ~ I I W { ! 1.OX",
"N.g.p.) ~ ~.m.~ ~.'.B.t.b.m.v.] ] v.i.V.v.S ^ r.K ..E j ( k U 2.X.S ( ..A j ( T S : q f : = 3 R #.9.R.R.! 6 2 b R } Y W *.#.! ~ ",
"^ t.r.z j ,.U I X.( / b.i.B.<.( <.v.V.#Xh.3 a H t.] U S o.~.$.] H./.k U U 4 t ( j a f e g I Y ! *.6.R.W.R.I B W *.6.=.=.-.#.R 4 ",
"XXB.D d g W W j A j ) P.S.v.S S U ) r.z.l.l J t.v b.'.m.v.4.,.' <.N.j A j f f t 3 j E E I A ! I I #.@.@.@.I 6 ! :.-.:.6.*.W 6 S ",
"H.7.T A Y -.-.j I j k o.) _ U U / b.b.V.l.y.s.c.a.Z.'.o.] !.' U A A ' E j f f : g 4 ~ *.:.:.=.! I I W I P 6 3 2 I *.*.T.6.#.U j ",
"N./.,.A d Y =.W E U g ' U _ <.o.`.I.N.D.z.G.V.f.l.) ] S ^ ' E S H g.] ' j = q > 1 3 A A | 8.:.8.8.! I 6 ~ T A C f U ! -.>.$.~ A ",
"J._.N.J.f q S m ] S t F k _ v.] _.g.i.p.A.S.o.( L.H.' ( ^ U X.] g.K.c e a 9 7 : = : * < T H.| {.:X*.W W 1.W ' ( t.m.E ( K d d j ",
"'.`.`.N.( S ^ U ^ K z l s k / M ] i.P.b.u.b._.'.<.X.^ H ) S <.] U S f t c k k s = = * : e d 4 } } 6 4 4 E W 9.,.S C 4 d f z G f ",
"n.C.J.' ' U T >.~.) ^ s s H i.p.r.b.S.B.) 0.V.M.%.n.v.o.b./ o.H h.b./ J H a f k A d d S d A < d S d d S ' I W | ~ X.j 3 d z w.< ",
"_ ^ r.H d a j <.%Xj.' c c e k v u.<.<.n.v.p.+XM.$.( v.4.%.) ' J.Z.g.b.v q : e a j < = > < 6 1 < t q = e S I j ' o.T j 6 j g k j ",
"' ` b.S.k A T v.J / U c G l / h _ <.<.' M.i.D.=X~.m.b.Q.<.c ^ ~.v.) U.q.r.f d : y y = @ > 4 C ( U : : 7 f.y.t f c z < > S o.D <."
};
