/* XPM */
static char *_460a3e917db456e86d86337584f59ca0Jml5UUwSB0guO1r[] = {
/* columns rows colors chars-per-pixel */
"64 64 172 2 ",
"   c #211F26",
".  c #221F29",
"X  c #1F222F",
"o  c #222027",
"O  c #25232A",
"+  c #29262D",
"@  c #27282C",
"#  c #2B282E",
"$  c #312D2E",
"%  c #252334",
"&  c #2A2631",
"*  c #272830",
"=  c #2C2A32",
"-  c #25253A",
";  c #2A263B",
":  c #27283B",
">  c #2C2B3B",
",  c #312E35",
"<  c #312D3A",
"1  c #333235",
"2  c #393437",
"3  c #35333A",
"4  c #39353C",
"5  c #262543",
"6  c #282240",
"7  c #282542",
"8  c #272945",
"9  c #2B2B43",
"0  c #292946",
"q  c #262949",
"w  c #2B2C4B",
"e  c #312C42",
"r  c #322F4F",
"t  c #2D314A",
"y  c #2D304C",
"u  c #303045",
"i  c #353344",
"p  c #34334C",
"a  c #363A4E",
"s  c #232B52",
"d  c #272D53",
"f  c #2B2D51",
"g  c #302F52",
"h  c #2E3252",
"j  c #2F355B",
"k  c #313750",
"l  c #343454",
"z  c #3A3757",
"x  c #353A54",
"c  c #3A3B54",
"v  c #31315A",
"b  c #37365F",
"n  c #39365D",
"m  c #363B59",
"M  c #383B59",
"N  c #383D5D",
"B  c #303461",
"V  c #3B3760",
"C  c #323A61",
"Z  c #3E3C64",
"A  c #393F70",
"S  c #403F5C",
"D  c #403F65",
"F  c #374158",
"G  c #3D4361",
"H  c #3B436C",
"J  c #3D486A",
"K  c #44445D",
"L  c #444562",
"P  c #484467",
"I  c #464867",
"U  c #484F66",
"Y  c #44456B",
"T  c #49436F",
"R  c #434868",
"E  c #404D6E",
"W  c #4B4C6C",
"Q  c #4C5166",
"!  c #45506E",
"~  c #4B526D",
"^  c #555B6F",
"/  c #454371",
"(  c #494775",
")  c #424E71",
"_  c #4C4F71",
"`  c #404D79",
"'  c #4C4B7B",
"]  c #504F7B",
"[  c #455274",
"{  c #4B5375",
"}  c #4C577A",
"|  c #4D5A7C",
" . c #525375",
".. c #54537A",
"X. c #545B79",
"o. c #585B7D",
"O. c #60697F",
"+. c #4A4D80",
"@. c #465480",
"#. c #4F5887",
"$. c #4B5789",
"%. c #4F5A8A",
"&. c #535E82",
"*. c #555C82",
"=. c #5A5C84",
"-. c #52548B",
";. c #595488",
":. c #515989",
">. c #575A8C",
",. c #565B92",
"<. c #585F9A",
"1. c #566284",
"2. c #5B6682",
"3. c #5F618D",
"4. c #5E688E",
"5. c #566393",
"6. c #566593",
"7. c #5D6F9B",
"8. c #5E6B9E",
"9. c #69688F",
"0. c #67718D",
"q. c #646691",
"w. c #636891",
"e. c #626D95",
"r. c #696B92",
"t. c #676E99",
"y. c #6B749D",
"u. c #74759F",
"i. c #737B9C",
"p. c #6167A0",
"a. c #676FA7",
"s. c #6376A3",
"d. c #697BAC",
"f. c #7475A7",
"g. c #7479A6",
"h. c #747CA4",
"j. c #7B7DA6",
"k. c #7076AC",
"l. c #757EA9",
"z. c #7C7DA9",
"x. c #747DB2",
"c. c #7381A3",
"v. c #7784AA",
"b. c #7D84AD",
"n. c #7E89AF",
"m. c #7383B1",
"M. c #7E81B3",
"N. c #7D8CB5",
"B. c #7A86B9",
"V. c #7E8EB9",
"C. c #7F91BE",
"Z. c #7F87C1",
"A. c #8084AF",
"S. c #8688AE",
"D. c #8186B1",
"F. c #828CB4",
"G. c #8185BC",
"H. c #8088B8",
"J. c #848CBC",
"K. c #8B8EBD",
"L. c #8090B6",
"P. c #8893B7",
"I. c #8393BC",
"U. c #898DC2",
"Y. c #8594C3",
"T. c #8A92C4",
"R. c #8F9CC2",
"E. c #8E9CCA",
"W. c #9099CA",
"Q. c #94A3CE",
"!. c #8FA0D0",
"~. c #9BAAD2",
/* pixels */
"O     O   o O = O       O O O O X o o o o o o O o o o       O + o o O o o o o o o     o O O o + = O O O = # O o O o % R ~ % # o ",
"  o o o o O = O O     O O O O o   o o o o o O O o o       O + o o O o O O o o o     o O + o O = O O O + = o o o o . M X.= + O o ",
"O O O O o O O O o   o O O O o o o o   o O O O o O o     O + O o O O o O o o o   o   O + O O = O o   + = O . O O . y *.u O + o o ",
"O O o O o o o O   O O O O o   o o o O O O O O o o o o O # O o O O o o o o o o     O + O O = O o o O , O o O O O 0 o.a O # O O # ",
"O o   o o o     O O O O o o o o o o O + O O o o o   O = O o O O o O o o o o o   O # O O = = O o O = O o O O   : { K O = O O # $ ",
"o o o o o o   O O O O o o o o o o O + O O O o o o O = O O O O o O o o o o o o o # O O = = O O O , + O O O o % W U O # O o O = O ",
"O o o o o o O O O O O o O o O O O + O O O o o o O = O O O O O O o O o O o o o + + o = = O O O = # O O O o X J _ - # + O O = % s ",
"O O o o O O O O O O O O O O O O + O O O O o O O = O O O O O O O O O O O O O + O   # , O O O = = O . O O O G } : + + o O = + q 7.",
"O O o O O O O O o O O O O O   O O o O O O O O = O O O O O O O O O O O O O + + O + , O O O , = O . O O . N =.> @ + O O # = 5 5.~.",
"o o O O O O O O O O O O O o O O O O O     O = O O O + O O O O O O O O O + + O * , O O O O = O O O O O O x x O = o O = , : @.Q.>.",
"  O O O O O O O O O O O   o O O O O O O O = O O O = O O O O O O O O O * O   * , O . O O O O O O O O O O O O = O O O , % H E.w.7 ",
"O O O * O O O O O O O     . O O O   O O = O O O O O O O O O O O O O O * O + , O . O O O O O O O O O o O + # O O O = O j C.g.0 = ",
"O O O O O O O O O O         O O O O + = O O O = O O O O O o o O O O . . + 3 O O O O O O O o o o O o O O = + O O , * d m.H.g = O ",
"= O O O O O O O O O   o   . O O . + = O O O + O O O o O O O O O O O . O O + O O O O O O O o o o O o O # + O O = # 8 s.R.b = O O ",
"O O O O O O O O O O O     O O O = = O O O = O O O o O O O O O O O O O O O O O O O O O O O O O O O O = + O O = = - 5.E.Y = + O O ",
"  O O O O O O O O O O O o O O O + O O O = O O O O o O O O O O O O O O O O O O O O O O O O O O O O = + O O = = - $.Q.' > # O O O ",
"    O O O O o o O o O . O O O O O O * = O O O O O O O O O O O O O O O O O O O O O O O O O O O O = + o O = , - ` !.=.9 # O O O O ",
"O O O O O   o o O o . . O O O O O * * O O O O O O O O O O O O O O O O O O O O O O O O O O O O O # O O = , % H E.w.7 # O O O O > ",
"O O O . . O O O O O O O O O O O = + O O O O O O O O O O O O O O O O O O O O O O O O O O O O O O O O = , % C Y.y.w = O O O o - F ",
"O . O O O O O O O o O O O O O = + O O O O O O O O O O O O O O O O O O O O O O O O O O O O O O O O = < % j C.l.r = O O O O O x 2.",
". O O O O O O O O o o O O + = + O O O O O O O O O O O O O O O O O O O O O O O O O O O O O O O O # 1 * f B.B.l , O O O O % p 2.Q ",
"O O O O O O O O O O O O + = + + O O O O O O O O O O O O O O O O O O O O O O O O O O O O O O O + 1 + w x.G.v = O O O O O t 2.^ = ",
"o O O O O O O O O O O + = O + O O O O O O O O O O O O O O O O O O O O O O O O O O O O O + O + 3 * q d.T.b = O O O O O w 2.O.: O ",
"O O O O O O O O O O = = + O O O O O O O O O O O O O O O O O O O O O O O O O O O O O O O O # 3 # 6 8.T.V , + O O O + 9 1.0.> O o ",
"O O O O O O O O O = = + + O O O O O O O O O O O O O O O O O O O O O O O O O O O O O O O + 3 = - :.W.Z % + O O + + 9 1.i.i O + O ",
"O O O O O O O O = * * O O O O O O O O O O O O O O O O O O O O O O O O O O O O O O O O # 2 = - %.E.' % O O O O + : &.c.c + + O O ",
"O O O O O O + = + O O O O O O O O O O O O O O O O O O O O O O O O O O O O O O O O O + 3 # % #.W.+.% O O O O + : | n.L + O O O O ",
"O O O O O * = O O O O O O O O O O O O O O O O O O O O O O O O O O O O O O O O O O + 4 = - $.W.' % O O O + O : } N.I % + O + O + ",
"O O O O = = O O O O O O O O O O O O O O O O O O O O O O O O O O O O O O O O + O + 3 , : $.W.' % O O O * % ; { L._ * O O O O + = ",
"O O + , = O O O O O O O O O O O O O O O O O O O O O O O O O O O O O O O O O O + 3 = : #.T.( % O O O + + : [ N. .& O O O O + = + ",
"O = , + O O O O O O O O O O O O O O O O O O O O O O O O O O O O O O O O + O # 3 # - :.U./ % O O O # + - ! N.X.= + O O O + = + O ",
", = O O O O O O O O O O O O O O O O O O O O O O O O O O O O O O O O + O O = 3 # : ,.T.Y % O O O @ + - ) N.o.> + O O O + # + + O ",
"+ O O O O O O O O O O O O O O O O O O O O O O O O O O O O O O O O + + O = 3 = 7 <.I.D % O O O + + - E N.=.; # O + O + = + O + + ",
"O O O O O O O O O O O O O O O O O O O O O O O O O O O + O O O O + O O = 3 = 5 p.K.Z O O O O * + : E N.=.; # O O + + = + + + + + ",
"O O O O O O O O O O O O O O O O O O O O O O O O O O + O O + + + + O = 4 * w a.G.n O O O O % & - ) V.=.> = + O + + # # + + + + + ",
"O O O O O O O O O O O O O O O O O O O O O O O O O O + O O + + + O , i * f k.M.l % O O O * * : ) V.=.; = + O O + # # + + + + + O ",
"O O O O O O O O O O O O O O O O O O O O O O O O + + O O O + + * 3 4 % B x.f.f + + O O = + ; [ I.=.> , + + + + = # + + + + + + + ",
"O O O O O O O O O O O O O O O O O O O O O O + + + + + + + O * 3 3 - A Z.q.9 + + O @ = + ; } P.o.> 1 # O + + = = + + + + + + + # ",
"O O O O O O O O O O O O + O O O O O O O O O O + + + + + O # 3 1 7 +.J.;.; O O O @ # + : | I.X.> 1 # + + + = = + + + + + + + + = ",
"O O O O O O O O O O O O O O O O O O O O + + + + + + + O = 4 = : ,.U.T % * + + + = O 7 &.I.{ < , + + + + = = + + + + + + + + + + ",
"O O O O O O O O O O O O O O O O O O O + + + + + + + O 3 4 # O - -.] % + + + + # + 9 6.J.I > 1 + + + + = = + + + + + + + + + + + ",
"O O O + + O O O O O O O O O O O O O + + O + + + + + 3 3 * O O + : % + O + + = * t e.P.I < 1 + + + + = = + + + + + + + + + + + + ",
"O + + O O O O O O O O O O O O O + + + + + * * O O = 3 O + O O + + + + + = # O h y.b.S , 1 + & + + = # + + + + + + + + + + + + + ",
"+ + O O O O O O O O O O O O O + + O + + * * + O O O + + + + O O O + + = # O k h.b.z , 1 + # + # = # + + + + + + + + + + # + + + ",
"O O O O O O O O O O O O O + + + O O + + + O + + + + + + + + + + O + = = % N v.i.p < , + # + # = # + + + + + + + + + + = # + + + ",
"O O O O O O O O O O O + + + + O + + * + O + + + + + + + + + + + + = # - J N.r.9 3 $ # # + # = + + + + + + + + + + + = # + + + + ",
"O O O O O O O O O O O + + + O O + = + O O + + + + + + + + + O + = * ; [ I.=.> 3 = + # + # = + + + + + + + + + + + = # + + + + + ",
"O O O O O O O O O O + + O O + = + O O + O O O O + + + + + O = = + > 1.J. .> 2 = + + + = = + + + + + + + + + + + = + + + + + + + ",
"O O O O O O O O + + O + + + + + O O O O O O + + + + O + + = = + 9 4.F.D , 3 = # # + = = + + + + + + + + + + + = # + + + + + + + ",
"O O O O O O O + + O + + + + O O O O O O O O + + + + O * = & % y t.b.x , 3 # + + # = # + + + + + + + + + + # = # + + + + + + + + ",
"O O O O O + + + O O O O O + O O + O + O + + + + + + * = + % m l.l.z 1 1 + * + = = # + + + + + + + + + + # = # # + + + + + + + + ",
"O O O O + + + O O O O O O O O O + O O + + + + + O # = O - Y n.r.u 2 , * # + + = + + + + + + + + + + + # = # + + + + + + + + + + ",
"O O O + + + + O O + + O O O O O O O + + + + + + = = + 8 } F...e 3 = * = + + + + + + # # + + + + + + # = # # + + + + + + + + + + ",
"O + + O O O O + + + + O O O O O + + + + + * * = = O t e.D.P < 3 # = = + O + + + + = + + + + + + + = = # # # # + + + + + + # + + ",
"* + O O O O + + + + + + O O O O + + + + + + = # % N h.u.a 2 2 = # # + + + + + = = + + + + + + + = = # # + # + + + # + + # # + + ",
"+ O O O O + + O O O + O O + + + + + O * = # O : { b.=.e 3 1 + = + + + + + + + = + + + + + + + = = # # + + + + + + # # + # # + + ",
"+ + O + + O O O O O O O O + + + + + + = = O 9 3.A.I < 4 = = # + O + + + + = = + + + + + + # = # # # + + + + + + + + + + + + + + ",
"O + + O O O + O O O + + + + + O + = = # % N g.u.z 3 2 # # # + * * + + + = + + + + + + + # = = = # + + + + # # + + + + + + + + + ",
"+ + O O O O O O + O + + + + + O = = O : { A.=.e 4 3 + # # + + + + + + = * + + + + + + # = = * = + + + + # # + + + + + + + + + + ",
"O O O O O O O O + + + + + + # = # % p r.j.K < 4 = + = + O + + + + + = + + + + + + + = = = * * + + + + + # + + + + + + + + + + + ",
"O O O O O + O + * + + O + = = * ; I z.r.p , 2 # = = + + + + + + * = + + + + + + + = = # + + + + + + + = + + + + + + + + + # # # ",
"O O O O + * * + + O O * = = O r q.z.W < 3 , * = = O + + + + + # # + + + + + + + = = # # + + + + + + * + # # + + + + + + + + # # ",
"O O O O + * * + O O = = * > W j.9.p < 2 , * = * + + O + + + = + + + + + + + = = = = # + + + + + + + # + + + + + + # # # + # # # ",
"O O O + + + + O * = = O > L S...: 1 2 = = = + + + + O + # = + + + + + + + = , = # # + + + + + + + # = + + + + + + # # # + # # # "
};
